<svg width="25" height="24" viewBox="0 0 25 24" fill="none" xmlns="http://www.w3.org/2000/svg">
<path opacity="0.4" d="M6.5 22C4.29086 22 2.5 20.2091 2.5 18L2.5 6C2.5 3.79086 4.29086 2 6.5 2L18.5 2C20.7091 2 22.5 3.79086 22.5 6L22.5 18C22.5 20.2091 20.7091 22 18.5 22L6.5 22Z" fill="#009DBA"/>
<path fill-rule="evenodd" clip-rule="evenodd" d="M6.75 12C6.75 11.5858 7.08579 11.25 7.5 11.25L17.5 11.25C17.9142 11.25 18.25 11.5858 18.25 12C18.25 12.4142 17.9142 12.75 17.5 12.75L7.5 12.75C7.08579 12.75 6.75 12.4142 6.75 12Z" fill="#009DBA"/>
<path fill-rule="evenodd" clip-rule="evenodd" d="M8.75 7C8.75 6.58579 9.08579 6.25 9.5 6.25L15.5 6.25C15.9142 6.25 16.25 6.58579 16.25 7C16.25 7.41421 15.9142 7.75 15.5 7.75L9.5 7.75C9.08579 7.75 8.75 7.41421 8.75 7Z" fill="#009DBA"/>
<path fill-rule="evenodd" clip-rule="evenodd" d="M8.75 17C8.75 16.5858 9.08579 16.25 9.5 16.25L15.5 16.25C15.9142 16.25 16.25 16.5858 16.25 17C16.25 17.4142 15.9142 17.75 15.5 17.75L9.5 17.75C9.08579 17.75 8.75 17.4142 8.75 17Z" fill="#009DBA"/>
</svg>
