<svg width="40" height="40" viewBox="0 0 40 40" fill="none" xmlns="http://www.w3.org/2000/svg">
<path d="M10.0002 15.0003L16.3022 19.2017C18.5415 20.6945 21.4588 20.6945 23.6982 19.2017L24.5154 18.6568M23.0047 6.66699H10.0002C6.31826 6.66699 3.3335 9.65176 3.3335 13.3337V30.0003C3.3335 33.6822 6.31826 36.667 10.0002 36.667H30.0002C33.6821 36.667 36.6668 33.6822 36.6668 30.0003V20.3292M36.6668 11.667C36.6668 14.4284 34.4283 16.667 31.6668 16.667C28.9054 16.667 26.6668 14.4284 26.6668 11.667C26.6668 8.90557 28.9054 6.66699 31.6668 6.66699C34.4283 6.66699 36.6668 8.90557 36.6668 11.667Z" stroke="#23B576" stroke-width="2.5" stroke-linecap="round"/>
</svg>
