<svg width="32" height="32" viewBox="0 0 32 32" fill="none" xmlns="http://www.w3.org/2000/svg">
<path d="M1 15.9996C1 22.5496 5.2 28.0996 11 30.1496V1.84961C5.2 3.89961 1 9.44961 1 15.9996Z" fill="#ED4C5C"/>
<path d="M16 1C14.25 1 12.55 1.3 11 1.85V11H30.15C28.1 5.2 22.55 1 16 1Z" fill="#699635"/>
<path d="M30.15 11H11V21H30.15C30.7 19.45 31 17.75 31 16C31 14.25 30.7 12.55 30.15 11Z" fill="#F9F9F9"/>
<path d="M11 21V30.15C12.55 30.7 14.25 31 16 31C22.55 31 28.1 26.85 30.15 21H11Z" fill="#3E4347"/>
</svg>
