<svg width="24" height="21" viewBox="0 0 24 21" fill="none" xmlns="http://www.w3.org/2000/svg">
<path opacity="0.4" d="M21.1303 8.62048C22.2899 9.68805 22.2899 11.31 21.1303 12.3776C19.1745 14.1781 15.8155 16.624 12 16.624C8.18448 16.624 4.82549 14.1781 2.86971 12.3776C1.7101 11.31 1.7101 9.68805 2.86971 8.62048C4.82549 6.81994 8.18448 4.37402 12 4.37402C15.8155 4.37402 19.1745 6.81994 21.1303 8.62048Z" fill="#8A8A8A"/>
<path d="M14.1213 12.3552C14.3999 12.1114 14.6209 11.822 14.7716 11.5036C14.9224 11.1851 15 10.8437 15 10.499C15 10.1543 14.9224 9.81296 14.7716 9.49448C14.6209 9.176 14.3999 8.88662 14.1213 8.64287C13.8427 8.39911 13.512 8.20576 13.1481 8.07384C12.7841 7.94192 12.394 7.87402 12 7.87402C11.606 7.87402 11.2159 7.94192 10.8519 8.07384C10.488 8.20576 10.1573 8.39911 9.87868 8.64287L12 10.499L14.1213 12.3552Z" fill="#8A8A8A"/>
<path fill-rule="evenodd" clip-rule="evenodd" d="M12 16.624C8.18448 16.624 4.82549 14.1781 2.86971 12.3776C1.7101 11.31 1.7101 9.68805 2.86971 8.62048C3.69954 7.85652 4.78198 6.97637 6.04473 6.21617L3.46976 3.96306C3.17686 3.70678 3.17686 3.29127 3.46976 3.03498C3.76265 2.7787 4.23752 2.7787 4.53042 3.03498L20.5304 17.035C20.8233 17.2913 20.8233 17.7068 20.5304 17.9631C20.2375 18.2193 19.7626 18.2193 19.4698 17.9631L16.643 15.4896C15.2337 16.161 13.6601 16.624 12 16.624ZM12 13.1241C10.3431 13.1241 9 11.9488 9 10.4991C9 10.0123 9.15146 9.5564 9.41539 9.16559L13.524 12.7606C13.0774 12.9916 12.5564 13.1241 12 13.1241Z" fill="#8A8A8A"/>
</svg>
