<svg width="70" height="12" viewBox="0 0 70 12" fill="none" xmlns="http://www.w3.org/2000/svg">
<path d="M0 11.8176V0.136963H8.17035V2.17308H2.60897V4.95635H7.62807V6.99248H2.60897V11.8176H0Z" fill="#020202"/>
<path d="M9.9082 11.8176V0.136963H12.5172V9.78145H17.8074V11.8176H9.9082Z" fill="#020202"/>
<path d="M22.1558 0.136963V11.8176H19.5469V0.136963H22.1558Z" fill="#020202"/>
<path d="M35.0012 4.24905H32.3621C32.3139 3.92586 32.2155 3.63878 32.0668 3.38783C31.9182 3.13308 31.7274 2.91635 31.4944 2.73764C31.2615 2.55894 30.9923 2.42205 30.687 2.327C30.3858 2.23194 30.0584 2.18441 29.7049 2.18441C29.0662 2.18441 28.5099 2.3346 28.0359 2.63498C27.5619 2.93156 27.1944 3.36502 26.9333 3.93536C26.6722 4.5019 26.5416 5.19011 26.5416 6C26.5416 6.8327 26.6722 7.53232 26.9333 8.09886C27.1984 8.6654 27.5679 9.09316 28.0419 9.38213C28.5159 9.6711 29.0642 9.81559 29.6868 9.81559C30.0363 9.81559 30.3597 9.77186 30.6569 9.68441C30.9582 9.59696 31.2253 9.46958 31.4583 9.30228C31.6913 9.13118 31.8841 8.92395 32.0367 8.68061C32.1934 8.43726 32.3018 8.1597 32.3621 7.84791L35.0012 7.85932C34.9329 8.39544 34.7622 8.91255 34.489 9.41065C34.2199 9.90494 33.8564 10.3479 33.3984 10.7395C32.9445 11.1274 32.4022 11.4354 31.7716 11.6635C31.145 11.8878 30.436 12 29.6447 12C28.544 12 27.5599 11.7643 26.6922 11.2928C25.8286 10.8213 25.1457 10.1388 24.6436 9.24525C24.1455 8.35171 23.8965 7.26996 23.8965 6C23.8965 4.72624 24.1495 3.64259 24.6557 2.74905C25.1618 1.85551 25.8487 1.1749 26.7163 0.707225C27.584 0.235742 28.5601 0 29.6447 0C30.3597 0 31.0224 0.0950571 31.633 0.285171C32.2476 0.475285 32.7919 0.752852 33.2659 1.11787C33.7399 1.47909 34.1255 1.92205 34.4227 2.44677C34.724 2.97148 34.9168 3.57224 35.0012 4.24905Z" fill="#020202"/>
<path d="M36.7363 11.8176V0.136963H39.3453V5.28715H39.508L43.9487 0.136963H47.0758L42.4965 5.367L47.13 11.8176H44.0089L40.6287 7.01529L39.3453 8.49818V11.8176H36.7363Z" fill="#020202"/>
<path d="M60.2695 11.8176V0.136963H65.138C66.0699 0.136963 66.8653 0.294758 67.524 0.610347C68.1868 0.922134 68.6909 1.3651 69.0364 1.93924C69.3859 2.50959 69.5606 3.18069 69.5606 3.95255C69.5606 4.72822 69.3839 5.39552 69.0304 5.95445C68.6769 6.50959 68.1647 6.93544 67.4939 7.23202C66.8271 7.5286 66.0197 7.67689 65.0717 7.67689H61.812V5.6921H64.6499C65.148 5.6921 65.5618 5.62746 65.8912 5.49818C66.2206 5.3689 66.4656 5.17499 66.6263 4.91643C66.7909 4.65788 66.8733 4.33658 66.8733 3.95255C66.8733 3.56472 66.7909 3.23772 66.6263 2.97156C66.4656 2.7054 66.2185 2.50388 65.8851 2.367C65.5558 2.22632 65.14 2.15597 64.6379 2.15597H62.8785V11.8176H60.2695ZM66.9335 6.50198L70.0004 11.8176H67.1203L64.1197 6.50198H66.9335Z" fill="#020202"/>
<path d="M58.5322 4.89982L54.986 4.89762H52.8604V4.89982H50.9977V4.89762H48.873V7.47046H58.5322V4.89982Z" fill="#020202"/>
<path d="M58.5322 0.574621L52.8604 0.572426V0.574621H50.9977V0.572426H48.873V3.14526H58.5322V0.574621Z" fill="#020202"/>
<path d="M54.986 9.22672L58.5322 9.22453H52.8604V9.22672H50.9977V9.22453H48.873V11.7974H58.5322V9.22672H54.986Z" fill="#020202"/>
</svg>
