<svg width="24" height="24" viewBox="0 0 24 24" fill="none" xmlns="http://www.w3.org/2000/svg">
<path opacity="0.4" d="M21 17.9668V10.1503C21 8.93937 20.4604 7.7925 19.5301 7.02652L14.5301 2.90935C13.0577 1.69688 10.9423 1.69689 9.46986 2.90935L4.46986 7.02652C3.53964 7.7925 3 8.93937 3 10.1503V17.9668C3 20.1943 4.79086 22 7 22H17C19.2091 22 21 20.1943 21 17.9668Z" fill="#23B576"/>
<path fill-rule="evenodd" clip-rule="evenodd" d="M7.30976 15.7073C7.47153 15.326 7.91179 15.148 8.29311 15.3098C9.83565 15.9642 10.9624 16.2529 12.0388 16.2502C13.1144 16.2475 14.214 15.9537 15.7032 15.3115C16.0836 15.1475 16.5249 15.3229 16.6889 15.7032C16.8529 16.0836 16.6775 16.5249 16.2972 16.6889C14.7227 17.3678 13.4081 17.7468 12.0425 17.7502C10.6777 17.7536 9.33627 17.3817 7.70728 16.6906C7.32596 16.5289 7.14799 16.0886 7.30976 15.7073Z" fill="#23B576"/>
</svg>
