<svg width="18" height="18" viewBox="0 0 18 18" fill="none" xmlns="http://www.w3.org/2000/svg">
<path opacity="0.4" d="M0.666016 4.00008C0.666016 2.15913 2.1584 0.666748 3.99935 0.666748H13.9993C15.8403 0.666748 17.3327 2.15913 17.3327 4.00008V14.0001C17.3327 15.841 15.8403 17.3334 13.9993 17.3334H3.99935C2.1584 17.3334 0.666016 15.841 0.666016 14.0001V4.00008Z" fill="#545454"/>
<path d="M14.8835 8.90338L17.3327 10.6668V14.0001C17.3327 15.8411 15.8403 17.3335 13.9993 17.3335H3.99935C2.1584 17.3335 0.666016 15.8411 0.666016 14.0001V10.6668L3.11519 12.4302C4.38785 13.3465 6.12711 13.2518 7.29275 12.2027L10.7059 9.13085C11.8716 8.08177 13.6109 7.98707 14.8835 8.90338Z" fill="#545454"/>
<circle cx="6.08333" cy="6.08333" r="2.08333" fill="#545454"/>
</svg>
