<svg width="40" height="40" viewBox="0 0 40 40" fill="none" xmlns="http://www.w3.org/2000/svg">
<path d="M23.3335 14.9997C23.3335 16.8406 21.8411 18.333 20.0002 18.333C18.1592 18.333 16.6668 16.8406 16.6668 14.9997C16.6668 13.1587 18.1592 11.6663 20.0002 11.6663C21.8411 11.6663 23.3335 13.1587 23.3335 14.9997Z" stroke="#009DBA" stroke-width="2.5"/>
<path d="M31.6668 14.7616C31.6668 18.5689 28.8369 23.3274 25.7376 26.5043C23.6987 28.5942 21.5433 29.9997 20.0002 29.9997C18.457 29.9997 16.3016 28.5942 14.2628 26.5043C11.1634 23.3274 8.3335 18.5689 8.3335 14.7616C8.3335 8.44975 13.5568 3.33301 20.0002 3.33301C26.4435 3.33301 31.6668 8.44975 31.6668 14.7616Z" stroke="#009DBA" stroke-width="2.5"/>
<path d="M25.257 26.9824C30.9483 27.6924 35 29.5219 35 31.6667C35 34.4282 28.2843 36.6667 20 36.6667C11.7157 36.6667 5 34.4282 5 31.6667C5 29.5219 9.05168 27.6924 14.743 26.9824" stroke="#009DBA" stroke-width="2.5" stroke-linecap="round"/>
</svg>
