<svg width="20" height="20" viewBox="0 0 20 20" fill="none" xmlns="http://www.w3.org/2000/svg">
<path opacity="0.4" d="M8.36051 2.7265C9.03109 1.31382 10.9686 1.31382 11.6392 2.7265L12.7981 5.16797C13.0644 5.72895 13.5791 6.11777 14.1745 6.20773L16.766 6.59924C18.2654 6.82577 18.8641 8.74161 17.7791 9.84123L15.9039 11.7417C15.4731 12.1783 15.2765 12.8074 15.3782 13.424L15.8208 16.1074C16.077 17.6601 14.5095 18.8442 13.1684 18.1111L10.8505 16.8442C10.318 16.5531 9.68172 16.5531 9.14915 16.8442L6.83131 18.1111C5.49016 18.8442 3.92269 17.6601 4.17883 16.1075L4.62149 13.424C4.72321 12.8074 4.5266 12.1783 4.09574 11.7417L2.22057 9.84123C1.13556 8.74161 1.73428 6.82577 3.23372 6.59924L5.82515 6.20773C6.42058 6.11777 6.93531 5.72895 7.20159 5.16797L8.36051 2.7265Z" fill="#93C83D"/>
</svg>
