<svg width="24" height="24" viewBox="0 0 24 24" fill="none" xmlns="http://www.w3.org/2000/svg">
<path d="M19.2291 15.2598L16.6891 14.9698C16.3904 14.9347 16.0877 14.9678 15.8036 15.0665C15.5196 15.1652 15.2616 15.327 15.0491 15.5398L13.2091 17.3798C10.3703 15.936 8.06284 13.6286 6.61906 10.7898L8.46906 8.93977C8.89906 8.50977 9.10906 7.90977 9.03906 7.29977L8.74906 4.77977C8.69237 4.29194 8.45826 3.842 8.0913 3.51561C7.72434 3.18923 7.25017 3.00918 6.75906 3.00977H5.02906C3.89906 3.00977 2.95906 3.94977 3.02906 5.07977C3.55906 13.6198 10.3891 20.4398 18.9191 20.9698C20.0491 21.0398 20.9891 20.0998 20.9891 18.9698V17.2398C20.9991 16.2298 20.2391 15.3798 19.2291 15.2598Z" fill="#F0F0F0"/>
</svg>
